<svg width="304" height="46" viewBox="0 0 304 46" fill="none" xmlns="http://www.w3.org/2000/svg">
<path d="M18.3731 9.58218C17.9361 11.301 17.5141 12.9889 17.107 14.6462C16.6995 16.2728 16.3988 17.8827 16.205 19.4761C16.9085 19.4671 17.6276 19.4732 18.3621 19.4944C19.1267 19.4846 19.9067 19.4746 20.702 19.4645C21.2547 17.2241 21.691 15.4595 22.0111 14.1705C22.3613 12.8505 22.6843 11.791 22.98 10.9918C23.1879 10.4996 23.5824 10.2498 24.1636 10.2424C24.4388 10.2389 24.6843 10.297 24.9 10.4166C25.1463 10.5358 25.271 10.7178 25.2741 10.9625C25.2811 11.513 25.2433 12.1407 25.1605 12.8454C25.0777 13.5501 24.9647 14.2857 24.8216 15.0524C24.709 15.8186 24.5658 16.5853 24.3921 17.3523C24.2179 18.0888 24.0432 18.7793 23.8679 19.424L26.8502 19.3859C27.5231 19.3773 28.0439 19.4319 28.4125 19.5495C28.8117 19.6668 29.0144 19.9701 29.0207 20.4595C29.0273 20.9795 28.7261 21.3505 28.1171 21.5724C27.5077 21.7638 26.7138 21.881 25.7354 21.9241L23.0289 22.0045C22.9156 22.7096 22.7871 23.4302 22.6436 24.1663C22.5302 24.8713 22.4009 25.5307 22.2558 26.1445C22.2558 26.1445 22.2711 26.1443 22.3017 26.1439C22.3629 26.1431 22.5005 26.1413 22.7146 26.1386C22.9593 26.1355 23.3113 26.1463 23.7705 26.171C24.2599 26.1647 24.9481 26.1559 25.8352 26.1446C26.0799 26.1415 26.265 26.2615 26.3905 26.5046C26.5461 26.7168 26.6255 26.9452 26.6287 27.1899C26.6353 27.7099 26.4716 28.0638 26.1374 28.2516C25.8029 28.4089 25.1467 28.5243 24.1686 28.598L21.8745 28.6273C21.7016 29.4556 21.4994 30.3912 21.268 31.4343C21.0365 32.4774 20.7894 33.4902 20.5267 34.4725C20.2639 35.4548 20.0003 36.376 19.736 37.2359C19.5018 38.0649 19.3112 38.7098 19.1641 39.1706C19.1057 39.3855 18.97 39.5402 18.757 39.6347C18.5747 39.7288 18.3612 39.7774 18.1165 39.7805C17.8106 39.7844 17.519 39.7117 17.2418 39.5623C16.9649 39.4434 16.8251 39.277 16.8224 39.0628L16.8218 39.017C16.9356 38.3425 17.0634 37.576 17.2054 36.7176C17.347 35.8286 17.5037 34.9241 17.6755 34.0041C17.8473 33.0842 18.0192 32.1642 18.191 31.2442C18.3933 30.3238 18.5812 29.4648 18.7546 28.6672L14.2123 28.7252C13.7989 29.893 13.4008 31.0607 13.018 32.2281C12.6349 33.3649 12.2656 34.3945 11.9103 35.3168C11.5546 36.2085 11.2275 36.9469 10.929 37.532C10.6302 38.0865 10.3739 38.3804 10.1602 38.4137L10.1143 38.4143C9.86959 38.4175 9.59273 38.2986 9.28373 38.0578C9.00531 37.8166 8.86474 37.589 8.862 37.3749L8.86083 37.2831C8.97615 36.731 9.09146 36.1788 9.20678 35.6267C9.35229 35.0436 9.51271 34.4297 9.68803 33.785C9.86296 33.1097 10.0524 32.373 10.2564 31.575C10.4905 30.746 10.7692 29.8094 11.0923 28.7651L6.04536 28.8296C5.86183 28.8319 5.63106 28.7278 5.35303 28.5172C5.10559 28.3062 4.97816 27.9101 4.97074 27.329C4.96722 27.0537 5.10232 26.8531 5.37605 26.7272C5.67997 26.5704 6.06095 26.4584 6.51899 26.3914C7.00761 26.324 7.5578 26.2864 8.16956 26.2785C8.78092 26.2401 9.39248 26.217 10.0042 26.2092L11.8395 26.1858L12.705 22.0906L8.43797 22.1451C8.28503 22.147 8.06955 22.0427 7.79152 21.8321C7.54369 21.5905 7.41607 21.1792 7.40864 20.598C7.40512 20.3227 7.54023 20.1221 7.81396 19.9963C8.11788 19.8394 8.49886 19.7275 8.95689 19.6604C9.44552 19.593 9.98041 19.5556 10.5616 19.5482C11.1729 19.5098 11.7845 19.4866 12.3963 19.4788L13.268 19.4677C13.4994 18.4246 13.7318 17.4579 13.9652 16.5678C14.1986 15.6776 14.4325 14.8333 14.6671 14.0349C14.9012 13.2059 15.151 12.4073 15.4166 11.6391C15.6817 10.8403 15.9772 10.0258 16.3031 9.19562C16.3612 8.95014 16.5116 8.74936 16.7543 8.59329C16.9971 8.43723 17.2718 8.38783 17.5784 8.4451C17.9769 8.50119 18.2235 8.65101 18.3184 8.89454C18.4129 9.10748 18.4311 9.33669 18.3731 9.58218ZM15.6414 22.053L14.6848 26.1953C15.4495 26.1855 16.2141 26.1758 16.9788 26.166C17.7741 26.1558 18.5543 26.1612 19.3194 26.182L20.0925 22.0421L15.6414 22.053ZM28.3057 32.1245C28.0653 32.4641 27.7157 32.6368 27.2569 32.6427C26.8286 32.6482 26.5055 32.4993 26.2875 32.1962C26.0385 31.8629 25.9124 31.5738 25.9093 31.3291C25.9054 31.0233 26.0084 30.7007 26.2182 30.3615C26.7586 29.5592 27.3898 28.6792 28.1118 27.7216C28.864 26.7331 29.663 25.8204 30.5089 24.9836C31.3548 24.1467 32.2178 23.4474 33.0978 22.8855C33.9778 22.3235 34.8461 22.0371 35.7025 22.0262C36.4366 22.0168 37.0668 22.2535 37.593 22.7363C38.1189 23.1884 38.54 23.8255 38.8565 24.6475C39.1725 25.4388 39.368 26.3694 39.4428 27.4392C39.5482 28.5086 39.5321 29.6407 39.3944 30.8356C39.7239 30.2807 40.0972 29.5723 40.5145 28.7104C40.9314 27.8179 41.3948 26.9707 41.9046 26.1687C42.414 25.3362 42.9556 24.6257 43.5294 24.0371C44.1337 23.4481 44.757 23.1495 45.3994 23.1413C45.797 23.1362 46.1513 23.3305 46.4623 23.7243C46.7728 24.0874 47.0389 24.5582 47.2604 25.1366C47.4816 25.6845 47.6576 26.2941 47.7886 26.9655C47.9497 27.6058 48.0799 28.216 48.1791 28.796C48.2779 29.3454 48.3451 29.8188 48.3808 30.216C48.4165 30.6133 48.4343 30.8119 48.4343 30.8119C48.9724 29.8261 49.5546 28.702 50.1809 27.4397C50.8068 26.1468 51.4643 24.93 52.1534 23.7892C52.8424 22.6485 53.5644 21.6909 54.3193 20.9164C55.0739 20.1114 55.8488 19.7038 56.6441 19.6936C56.8276 19.6913 57.0425 19.7497 57.2888 19.8689C57.5652 19.9572 57.7827 20.2144 57.9411 20.6407C58.1312 21.1584 58.3236 21.8442 58.518 22.6983C58.7427 23.5215 58.9681 24.4058 59.1944 25.3513C59.4206 26.2968 59.6468 27.2422 59.8731 28.1877C60.0993 29.1332 60.3243 29.9869 60.5482 30.7489C60.7721 31.5109 60.9942 32.1352 61.2146 32.6218C61.435 33.1085 61.6522 33.3505 61.8663 33.3477C62.264 33.3427 62.734 33.0154 63.2764 32.3661C63.8183 31.6861 64.3895 30.8987 64.99 30.0038C65.2606 29.6332 65.6253 29.445 66.0841 29.4392C66.4817 29.4341 66.7894 29.5678 67.007 29.8404C67.2552 30.1125 67.3815 30.4169 67.3858 30.7533C67.3901 31.0898 67.3024 31.4121 67.1228 31.7204C66.2828 33.016 65.4245 34.0824 64.548 34.9196C63.7017 35.7258 62.6974 36.1364 61.535 36.1512C60.8009 36.1606 60.17 35.8627 59.6422 35.2576C59.1449 34.6521 58.7222 33.8927 58.374 32.9794C58.0259 32.066 57.7228 31.0909 57.4648 30.0541C57.237 28.9862 57.0255 27.9947 56.8302 27.0794C56.635 26.1641 56.457 25.4015 56.2962 24.7917C56.1354 24.1819 55.9633 23.8782 55.7798 23.8806C55.5351 23.8837 55.2319 24.1017 54.8704 24.5346C54.5394 24.9672 54.1942 25.4916 53.835 26.1081C53.506 26.6936 53.1773 27.3096 52.8491 27.9563C52.5208 28.6029 52.2525 29.157 52.0443 29.6185C51.8054 30.0805 51.4929 30.7575 51.1066 31.6497C50.7199 32.5112 50.3026 33.3731 49.8547 34.2354C49.4068 35.0978 48.9423 35.8532 48.4611 36.5018C47.9799 37.1504 47.5252 37.4774 47.097 37.4829C46.7911 37.4868 46.5762 37.4284 46.4523 37.3076C46.3287 37.2174 46.2507 37.096 46.2182 36.9435C46.1852 36.7603 46.1674 36.5617 46.1647 36.3476C46.1925 36.1331 46.2049 35.9035 46.2018 35.6588L46.1648 32.7682C46.1601 32.4012 46.1237 31.9428 46.0555 31.393C46.0179 30.8428 45.9345 30.3085 45.8056 29.79C45.7071 29.2712 45.5638 28.8295 45.3756 28.4647C45.218 28.0996 45.0321 27.9185 44.818 27.9212C44.4815 27.9255 44.1323 28.1288 43.7703 28.5311C43.439 28.9331 43.0785 29.4578 42.6891 30.1052C42.2993 30.722 41.9106 31.4306 41.5232 32.231C41.1663 33.031 40.7943 33.8464 40.4072 34.6774C40.0503 35.4773 39.693 36.2467 39.3353 36.9855C39.0082 37.7239 38.7104 38.3549 38.4417 38.8784C38.3225 39.1247 38.1113 39.3568 37.8082 39.5748C37.5356 39.7925 37.1699 39.9042 36.7111 39.9101C36.3747 39.9144 36.0517 39.7808 35.7423 39.5094C35.4333 39.2687 35.2761 38.9341 35.2706 38.5059C35.2687 38.353 35.2822 38.2151 35.3112 38.0924C35.5179 37.5085 35.7074 36.7718 35.8795 35.8825C36.0823 34.9927 36.2539 34.0574 36.3944 33.0766C36.5344 32.0653 36.6288 31.0698 36.6774 30.0902C36.7567 29.1102 36.7759 28.2228 36.7352 27.4279C36.6945 26.633 36.5945 25.9918 36.4353 25.5044C36.2757 24.9864 36.043 24.7293 35.7371 24.7332C35.2477 24.7395 34.6698 25.0069 34.0036 25.5355C33.3373 26.0641 32.642 26.7154 31.9176 27.4895C31.2235 28.2326 30.5607 29.0364 29.9293 29.9011C29.2975 30.7352 28.7563 31.4763 28.3057 32.1245ZM74.2393 15.2011C73.9094 18.1116 73.1804 20.9202 72.0525 23.6268C70.9242 26.3028 69.4555 28.6772 67.6464 30.75C67.8052 31.2069 68.0736 31.8612 68.4516 32.7129C68.8598 33.5337 69.3446 34.3688 69.9061 35.2183C70.4983 36.0673 71.15 36.7932 71.8613 37.396C72.6036 38.0289 73.403 38.3399 74.2595 38.329C75.3912 38.3145 76.1377 38.0755 76.4989 37.612C76.8601 37.1485 77.0362 36.565 77.0272 35.8615C77.0194 35.2497 76.9347 34.6084 76.7732 33.9374C76.6422 33.266 76.573 32.6398 76.5656 32.0586C76.5601 31.6304 76.6627 31.2772 76.8733 30.9992C77.1141 30.6902 77.4486 30.533 77.8768 30.5275C78.3662 30.5212 78.8258 30.5766 79.2556 30.6934C79.716 30.8099 80.1307 30.9423 80.4997 31.0905C80.8687 31.2388 81.1916 31.3723 81.4685 31.4912C81.7453 31.61 81.9755 31.6683 82.1591 31.6659C83.3214 31.6511 84.323 31.0264 85.1638 29.7919C85.2838 29.6069 85.4503 29.4671 85.6632 29.3726C85.8758 29.2475 86.0738 29.1838 86.2573 29.1814C86.6244 29.1767 86.932 29.3105 87.1802 29.5826C87.4587 29.8238 87.6004 30.1432 87.6055 30.5409C87.6129 31.122 87.4054 31.6448 86.9831 32.1091C86.5607 32.5733 86.0611 32.9774 85.4842 33.3213C84.907 33.6346 84.3136 33.8869 83.7042 34.0783C83.0944 34.239 82.5907 34.322 82.1931 34.327C81.6731 34.3337 81.2135 34.2784 80.8143 34.1611C80.4453 34.0129 80.0453 33.8344 79.6143 33.6258C79.6786 33.8697 79.7125 34.1293 79.716 34.4046C79.7195 34.6799 79.7229 34.9399 79.726 35.1846C79.7362 35.9799 79.654 36.7304 79.4794 37.4363C79.3049 38.1422 79.0068 38.7578 78.5852 39.2833C78.1942 39.8084 77.6487 40.213 76.9487 40.4973C76.2491 40.8122 75.3793 40.9763 74.3394 40.9895C73.1158 41.0052 71.9641 40.6528 70.8842 39.9323C69.8046 39.2425 68.829 38.3066 67.9573 37.1246C67.0856 35.9426 66.3188 34.5911 65.6569 33.0699C64.9644 31.5491 64.3784 29.981 63.8989 28.3657C63.4194 26.7505 63.0624 25.1489 62.8279 23.5611C62.5625 21.943 62.4214 20.4764 62.4046 19.1611C62.3847 17.6011 62.4102 16.01 62.4813 14.3877C62.5523 12.7653 62.7936 11.2938 63.205 9.97305C63.616 8.62171 64.2598 7.52744 65.1363 6.69024C65.9818 5.82284 67.1845 5.37917 68.7445 5.35924C69.7845 5.34595 70.6594 5.57952 71.3692 6.05993C72.0789 6.54035 72.653 7.17546 73.0914 7.96528C73.5294 8.7245 73.8311 9.59254 73.9966 10.5694C74.1922 11.5153 74.2959 12.447 74.3076 13.3647C74.3119 13.7011 74.3007 14.0225 74.2741 14.3288C74.278 14.6346 74.2664 14.9254 74.2393 15.2011ZM65.1116 19.1265C65.2539 20.6849 65.4258 22.1665 65.6273 23.5712C65.8288 24.9759 66.1219 26.3641 66.5065 27.7359C67.1383 26.9018 67.7683 25.9301 68.3966 24.8207C69.0249 23.7113 69.5757 22.5265 70.0491 21.2661C70.5225 20.0058 70.9035 18.7007 71.1922 17.3509C71.4809 16.0012 71.6166 14.6533 71.5994 13.3075C71.5932 12.8181 71.525 12.2683 71.3948 11.6581C71.2642 11.0173 71.0733 10.4385 70.8219 9.92162C70.6012 9.40436 70.3049 8.96455 69.9332 8.60219C69.592 8.23943 69.2073 8.06079 68.7791 8.06626C67.8615 8.07798 67.1326 8.5003 66.5926 9.3332C66.0828 10.1351 65.7129 11.1188 65.4831 12.2843C65.2223 13.4196 65.0846 14.6144 65.07 15.8689C65.0249 17.1238 65.0387 18.2097 65.1116 19.1265ZM85.467 30.4305C85.4537 29.3905 85.6398 28.3939 86.0254 27.4406C86.4109 26.4873 86.9048 25.6397 87.5072 24.8978C88.1402 24.1554 88.8363 23.5653 89.5955 23.1273C90.3853 22.6889 91.1779 22.4646 91.9731 22.4545C92.1873 22.4517 92.5241 22.478 92.9837 22.5333C93.4735 22.5577 93.9639 22.6279 94.4549 22.744C94.9764 22.8597 95.4376 23.0373 95.8383 23.277C96.2693 23.4856 96.5179 23.7884 96.5842 24.1852C97.1379 24.4229 97.6465 24.7223 98.11 25.0835C98.6037 25.4137 99.0221 25.8367 99.3652 26.3524C99.7389 26.8677 100.022 27.4759 100.215 28.1771C100.407 28.8477 100.509 29.6571 100.521 30.6053C100.889 30.6924 101.226 30.7492 101.533 30.7759C101.839 30.8026 102.145 30.814 102.451 30.8101C103.246 30.7999 103.902 30.6845 104.42 30.4637C104.937 30.2124 105.437 29.8389 105.92 29.3432C106.04 29.2193 106.192 29.1256 106.375 29.062C106.588 28.9676 106.756 28.9195 106.878 28.918C107.306 28.9125 107.629 29.0613 107.847 29.3645C108.096 29.6366 108.222 29.9409 108.226 30.2774C108.228 30.4303 108.184 30.5839 108.094 30.738C108.035 30.8917 107.976 31.0301 107.916 31.1533C107.678 31.6764 107.332 32.0938 106.877 32.4056C106.421 32.6867 105.935 32.9071 105.417 33.0667C104.899 33.2262 104.365 33.3401 103.815 33.4083C103.265 33.446 102.76 33.4677 102.301 33.4736C101.843 33.4794 101.399 33.4545 100.97 33.3988C100.571 33.3427 100.28 33.27 100.095 33.1805C99.7795 34.8366 99.0464 36.1155 97.8954 37.0174C96.7753 37.9495 95.2518 38.4279 93.3248 38.4525C91.9483 38.4701 90.7521 38.2253 89.736 37.7182C88.751 37.2414 87.9475 36.6092 87.3256 35.8217C86.7036 35.0342 86.249 34.1681 85.9616 33.2234C85.6432 32.2485 85.4783 31.3176 85.467 30.4305ZM90.2006 27.3872C90.183 26.0108 90.9536 25.2667 92.5124 25.155C91.8375 25.0107 91.2268 25.095 90.6801 25.4079C90.164 25.7204 89.7107 26.1545 89.3201 26.7102C88.96 27.2654 88.6773 27.8809 88.4717 28.5566C88.2662 29.2322 88.1672 29.8607 88.1746 30.4418C88.1852 31.2677 88.3477 32.0151 88.6622 32.6842C88.9762 33.3226 89.3811 33.8834 89.8768 34.3665C90.372 34.8191 90.9118 35.164 91.4961 35.4013C92.111 35.6382 92.709 35.7529 93.2902 35.7455C94.3913 35.7314 95.321 35.4595 96.079 34.9297C96.8673 34.369 97.2553 33.6145 97.2432 32.6663C96.6911 32.551 96.0158 32.3761 95.2174 32.1415C94.4186 31.8764 93.6494 31.5344 92.9098 31.1155C92.1702 30.6967 91.5365 30.1847 91.0087 29.5796C90.4809 28.9745 90.2115 28.2437 90.2006 27.3872ZM94.9018 25.3998C94.7489 25.4018 94.5502 25.4196 94.3059 25.4533C94.0922 25.4867 93.8791 25.5659 93.6665 25.691C93.4536 25.7855 93.272 25.9407 93.1218 26.1568C92.9712 26.3423 92.898 26.6033 92.9023 26.9397C92.9078 27.368 93.0656 27.7483 93.3758 28.0809C93.6856 28.3829 94.0717 28.6686 94.534 28.938C95.0265 29.1765 95.5647 29.399 96.1486 29.6057C96.7322 29.7818 97.3155 29.9426 97.8986 30.0881C97.7935 29.0493 97.4448 28.0901 96.8523 27.2105C96.2598 26.3309 95.6096 25.7273 94.9018 25.3998ZM105.221 16.8703C105.278 16.533 105.443 16.3168 105.717 16.2215C105.961 16.1266 106.174 16.078 106.358 16.0756C106.694 16.0713 107.017 16.159 107.325 16.3386C107.633 16.4876 107.788 16.6845 107.791 16.9292C107.803 17.8468 107.799 18.7494 107.78 19.6368C107.761 20.5243 107.757 21.3962 107.768 22.2527C107.786 23.6903 107.865 25.1118 108.006 26.5173C108.176 27.8918 108.467 29.1118 108.878 30.1773C109.32 31.2424 109.913 32.1067 110.655 32.7703C111.398 33.4032 112.35 33.7123 113.512 33.6974C114.828 33.6806 115.893 33.254 116.708 32.4176C117.523 31.5812 118.168 30.5481 118.642 29.3183C119.115 28.058 119.465 26.7074 119.691 25.2667C119.918 23.8259 120.1 22.4928 120.237 21.2673C120.348 20.3787 120.508 19.7801 120.719 19.4715C120.929 19.1629 121.279 19.0055 121.768 18.9992C122.135 18.9945 122.427 19.0673 122.643 19.2175C122.889 19.3673 123.062 19.7322 123.162 20.3122C123.327 21.289 123.556 22.4639 123.849 23.8369C124.142 25.2098 124.526 26.5204 125.001 27.7686C125.475 29.0169 126.04 30.0804 126.693 30.9592C127.377 31.8071 128.209 32.2248 129.187 32.2123C129.983 32.2021 130.682 31.872 131.286 31.2218C131.889 30.5716 132.553 29.8442 133.277 29.0396C133.427 28.8541 133.579 28.7298 133.731 28.6666C133.914 28.6031 134.082 28.5704 134.235 28.5684C134.693 28.5626 135.032 28.7112 135.25 29.0144C135.498 29.2865 135.624 29.5908 135.629 29.9273C135.632 30.2026 135.574 30.4175 135.453 30.572C135.334 30.7877 135.109 31.1271 134.778 31.5902C134.478 32.0529 134.071 32.5323 133.557 33.0283C133.043 33.4938 132.421 33.9147 131.692 34.2912C130.962 34.637 130.138 34.8158 129.221 34.8275C127.936 34.8439 126.862 34.5823 125.999 34.0427C125.166 33.5027 124.484 32.8077 123.953 31.9579C123.422 31.1081 123.012 30.165 122.723 29.1285C122.466 28.0916 122.269 27.0846 122.134 26.1073C121.997 27.3022 121.721 28.5142 121.309 29.7431C120.927 30.9717 120.375 32.0801 119.653 33.0683C118.962 34.0255 118.1 34.8166 117.068 35.4417C116.066 36.0663 114.893 36.3873 113.547 36.4045C111.834 36.4264 110.437 36.0312 109.356 35.219C108.274 34.3762 107.419 33.3011 106.791 31.9936C106.131 30.656 105.684 29.1627 105.449 27.5137C105.182 25.8345 105.039 24.169 105.018 22.5172C104.991 20.4679 105.059 18.5855 105.221 16.8703Z" fill="white"/>
<path d="M137.581 37.6835V20.8849H143.78L149.638 31.8567H147.189L153.605 20.8849H159.153L159.184 37.6835H153.884V26.7118L154.783 27.3316L149.576 36.1958H147.065L141.858 26.8977L142.881 26.6188V37.6835H137.581ZM172.982 37.9625C171.143 37.9625 169.511 37.5906 168.085 36.8467C166.659 36.1029 165.533 35.0801 164.707 33.7783C163.901 32.4559 163.498 30.9476 163.498 29.2532C163.498 27.5589 163.901 26.0609 164.707 24.7592C165.533 23.4574 166.659 22.445 168.085 21.7218C169.511 20.9779 171.143 20.606 172.982 20.606C174.821 20.606 176.453 20.9779 177.879 21.7218C179.325 22.445 180.451 23.4574 181.257 24.7592C182.063 26.0609 182.466 27.5589 182.466 29.2532C182.466 30.9476 182.063 32.4559 181.257 33.7783C180.451 35.0801 179.325 36.1029 177.879 36.8467C176.453 37.5906 174.821 37.9625 172.982 37.9625ZM172.982 33.2824C173.664 33.2824 174.263 33.1275 174.78 32.8175C175.317 32.5076 175.74 32.053 176.05 31.4538C176.36 30.8339 176.515 30.1004 176.515 29.2532C176.515 28.4061 176.36 27.6932 176.05 27.1147C175.74 26.5155 175.317 26.0609 174.78 25.751C174.263 25.441 173.664 25.286 172.982 25.286C172.321 25.286 171.721 25.441 171.184 25.751C170.668 26.0609 170.244 26.5155 169.914 27.1147C169.604 27.6932 169.449 28.4061 169.449 29.2532C169.449 30.1004 169.604 30.8339 169.914 31.4538C170.244 32.053 170.668 32.5076 171.184 32.8175C171.721 33.1275 172.321 33.2824 172.982 33.2824ZM186.777 37.6835V20.8849H192.976L198.834 31.8567H196.386L202.801 20.8849H208.349L208.38 37.6835H203.08V26.7118L203.979 27.3316L198.772 36.1958H196.262L191.055 26.8977L192.077 26.6188V37.6835H186.777ZM222.55 37.9625C220.567 37.9625 218.831 37.5906 217.343 36.8467C215.876 36.0822 214.73 35.0491 213.903 33.7473C213.097 32.4249 212.694 30.9269 212.694 29.2532C212.694 27.5796 213.087 26.0919 213.872 24.7901C214.678 23.4678 215.783 22.445 217.188 21.7218C218.593 20.9779 220.174 20.606 221.93 20.606C223.583 20.606 225.092 20.9469 226.455 21.6288C227.819 22.29 228.904 23.2715 229.71 24.5732C230.516 25.8749 230.919 27.4556 230.919 29.3152C230.919 29.5219 230.908 29.7595 230.888 30.0281C230.867 30.2967 230.846 30.5446 230.826 30.7719H217.529V27.6726H227.695L225.464 28.5404C225.484 27.7759 225.34 27.1147 225.03 26.5568C224.74 25.9989 224.327 25.565 223.79 25.2551C223.273 24.9451 222.664 24.7901 221.961 24.7901C221.259 24.7901 220.639 24.9451 220.102 25.2551C219.585 25.565 219.182 26.0092 218.893 26.5878C218.604 27.1457 218.459 27.8069 218.459 28.5714V29.4702C218.459 30.2967 218.624 31.0096 218.955 31.6088C219.306 32.208 219.802 32.6729 220.443 33.0035C221.083 33.3134 221.848 33.4684 222.736 33.4684C223.563 33.4684 224.265 33.3547 224.844 33.1275C225.443 32.8795 226.032 32.5076 226.61 32.0117L229.71 35.235C228.904 36.1235 227.912 36.8054 226.734 37.2806C225.557 37.7352 224.162 37.9625 222.55 37.9625ZM235.58 37.6835V20.8849H241.438V27.1147H247.482V20.8849H253.371V37.6835H247.482V31.7947H241.438V37.6835H235.58ZM262.643 37.6835V24.2633L263.913 25.565H257.219V20.8849H273.893V25.565H267.199L268.5 24.2633V37.6835H262.643ZM295.422 37.6835V20.8849H301.28V37.6835H295.422ZM287.333 26.0919C289.564 26.1125 291.228 26.6084 292.323 27.5796C293.438 28.5507 293.996 29.9351 293.996 31.7327C293.996 33.5924 293.356 35.0594 292.075 36.1338C290.794 37.1876 288.965 37.7042 286.589 37.6835H277.725V20.8849H283.582V26.0919H287.333ZM286 33.6544C286.702 33.6544 287.25 33.4891 287.643 33.1585C288.035 32.8279 288.232 32.3216 288.232 31.6398C288.232 30.9372 288.035 30.4413 287.643 30.1521C287.271 29.8628 286.723 29.7078 286 29.6872H283.582V33.6234L286 33.6544Z" fill="white"/>
</svg>
